HIERARCHY
ROOT root
{
	OFFSET 0.000000 0.000000 0.000000
	CHANNELS 6 Xposition Yposition Zposition Zrotation Yrotation Xrotation
	JOINT lhip
	{
		OFFSET 0.058581 -0.082280 -0.017664
		CHANNELS 3 Zrotation Yrotation Xrotation
		JOINT lknee
		{
			OFFSET 0.043451 -0.386469 0.008037
			CHANNELS 3 Zrotation Yrotation Xrotation
			JOINT lankle
			{
				OFFSET -0.014790 -0.426874 -0.037428
				CHANNELS 3 Zrotation Yrotation Xrotation
				JOINT ltoe
				{
					OFFSET 0.041054 -0.060286 0.122042
					CHANNELS 3 Zrotation Yrotation Xrotation
					End Site
					{
						OFFSET 0.000000 0.000000 0.000000
					}
				}
			}
		}
	}
	JOINT rhip
	{
		OFFSET -0.060310 -0.090513 -0.013543
		CHANNELS 3 Zrotation Yrotation Xrotation
		JOINT rknee
		{
			OFFSET -0.043257 -0.383688 -0.004843
			CHANNELS 3 Zrotation Yrotation Xrotation
			JOINT rankle
			{
				OFFSET 0.019056 -0.420046 -0.034562
				CHANNELS 3 Zrotation Yrotation Xrotation
				JOINT rtoe
				{
					OFFSET -0.034840 -0.062106 0.130323
					CHANNELS 3 Zrotation Yrotation Xrotation
					End Site
					{
						OFFSET 0.000000 0.000000 0.000000
					}
				}
			}
		}
	}
	JOINT lowerback
	{
		OFFSET 0.004439 0.124404 -0.038385
		CHANNELS 3 Zrotation Yrotation Xrotation
		JOINT upperback
		{
			OFFSET 0.004488 0.137956 0.026820
			CHANNELS 3 Zrotation Yrotation Xrotation
			JOINT chest
			{
				OFFSET -0.002265 0.056032 0.002855
				CHANNELS 3 Zrotation Yrotation Xrotation
				JOINT lowerneck
				{
					OFFSET -0.013390 0.211636 -0.033468
					CHANNELS 3 Zrotation Yrotation Xrotation
					JOINT upperneck
					{
						OFFSET 0.010113 0.088937 0.050410
						CHANNELS 3 Zrotation Yrotation Xrotation
						End Site
						{
							OFFSET 0.000000 0.000000 0.000000
						}
					}
				}
				JOINT lclavicle
				{
					OFFSET 0.071702 0.114000 -0.018898
					CHANNELS 3 Zrotation Yrotation Xrotation
					JOINT lshoulder
					{
						OFFSET 0.122921 0.045205 -0.019046
						CHANNELS 3 Zrotation Yrotation Xrotation
						JOINT lelbow
						{
							OFFSET 0.255332 -0.015649 -0.022946
							CHANNELS 3 Zrotation Yrotation Xrotation
							JOINT lwrist
							{
								OFFSET 0.265709 0.012698 -0.007375
								CHANNELS 3 Zrotation Yrotation Xrotation
								End Site
								{
									OFFSET 0.000000 0.000000 0.000000
								}
							}
						}
					}
				}
				JOINT rclavicle
				{
					OFFSET -0.082954 0.112472 -0.023707
					CHANNELS 3 Zrotation Yrotation Xrotation
					JOINT rshoulder
					{
						OFFSET -0.113228 0.046853 -0.008472
						CHANNELS 3 Zrotation Yrotation Xrotation
						JOINT relbow
						{
							OFFSET -0.260127 -0.014369 -0.031269
							CHANNELS 3 Zrotation Yrotation Xrotation
							JOINT rwrist
							{
								OFFSET -0.269108 0.006794 -0.006027
								CHANNELS 3 Zrotation Yrotation Xrotation
								End Site
								{
									OFFSET 0.000000 0.000000 0.000000
								}
							}
						}
					}
				}
			}
		}
	}
}
MOTION
Frames: 16
Frame Time: 0.033333
-0.160001 2.018505 0.987601 0.024753 -0.893936 84.829600 1.784921 -3.009537 -6.647777 -9.330173 -13.956090 20.924773 4.788637 15.422490 -12.600050 0.000000 -0.000000 0.000000 -4.708258 -3.422576 -4.578477 0.034417 0.963487 19.966197 3.288989 -13.627075 -12.759427 0.000000 -0.000000 0.000000 -2.750990 2.741361 1.170459 2.494288 -2.231673 8.621193 -0.655797 1.339152 2.681143 -8.212296 26.298710 5.285336 -8.318656 24.949906 -13.211880 -2.350560 18.254223 3.437304 -33.500778 8.152081 13.181479 -77.215486 -80.091033 93.678138 5.201203 -6.348101 -9.672887 10.637276 -15.087560 1.439851 42.150163 -4.807742 10.101840 5.145967 46.745284 20.212476 -4.724772 4.598923 -3.820642 
-0.167267 2.016385 0.986087 1.394818 -0.822231 84.684407 2.212674 -3.679157 -7.054085 -9.670224 -14.385726 22.272102 4.728209 15.373332 -13.283064 0.000000 -0.000000 0.000000 -4.230374 -3.588589 -4.230572 0.107944 0.274748 20.517567 2.938775 -14.155205 -13.673151 0.000000 -0.000000 0.000000 -3.417689 2.757977 1.063380 2.496569 -2.526825 8.355103 -0.355943 1.123324 2.521916 -8.985600 30.359021 4.438885 -8.601618 27.832809 -14.540563 -1.939243 18.334164 3.264378 -31.997721 7.320672 12.718382 -94.767038 -81.470571 112.319342 6.439309 -7.006420 -9.950499 10.570551 -16.046249 1.194296 43.030131 -5.657300 10.351167 4.960823 46.647873 20.684174 -5.011576 4.452802 -4.329004 
-0.173570 2.013340 0.984949 2.147900 -0.836946 84.538014 2.479442 -4.069114 -6.942639 -9.849105 -15.090882 22.856490 4.825485 15.393696 -13.577948 0.000000 -0.000000 0.000000 -3.821325 -3.539565 -3.612490 0.058628 -0.051743 20.529026 2.602364 -14.439436 -14.324526 0.000000 -0.000000 0.000000 -3.846337 2.810124 0.581712 2.392331 -2.693250 9.023168 -0.200555 1.052345 2.035658 -10.125036 33.500404 3.122445 -9.618402 30.180273 -15.935169 -1.801895 17.547872 3.485804 -31.052640 7.279519 12.142239 -112.908690 -82.733123 131.649292 8.737404 -7.404945 -10.365792 10.245290 -16.286772 1.398560 44.309068 -6.538474 10.381484 4.302360 46.516753 20.670709 -5.984934 4.471823 -5.246553 
-0.179256 2.010721 0.984124 2.444546 -0.792761 84.365196 2.900355 -3.932287 -6.881892 -10.131468 -15.344204 23.432173 4.715567 15.548689 -13.943458 0.000000 -0.000000 0.000000 -3.403545 -3.404651 -3.292502 0.034947 -0.588226 20.761130 2.470014 -14.697568 -14.422574 0.000000 -0.000000 0.000000 -4.094931 2.822055 1.005512 2.350627 -2.530941 8.852971 0.045018 1.039616 1.519985 -11.428376 36.077797 1.975819 -10.722857 31.904085 -17.296324 -2.110279 16.785742 3.488049 -29.984048 6.990031 11.972058 -125.013657 -83.456882 144.071030 10.542899 -7.808322 -10.684502 10.100532 -16.486864 1.581413 44.766193 -7.343170 10.161704 4.495108 46.407537 21.205516 -6.954061 4.593327 -5.323640 
-0.183619 2.008289 0.982927 3.050037 -0.950421 84.588509 3.016085 -4.158694 -7.594096 -10.393632 -15.452164 24.458993 4.747898 15.431562 -13.970220 0.000000 -0.000000 0.000000 -3.490839 -3.773431 -3.641985 0.188115 -1.289073 21.567722 2.325540 -14.638969 -14.651715 0.000000 -0.000000 0.000000 -4.389720 2.736291 0.824388 2.102866 -2.791419 9.173244 0.107064 1.094935 0.966363 -13.078718 38.091061 0.143878 -11.562836 33.207237 -18.787864 -2.047142 15.703644 3.830328 -29.545251 6.965570 11.537121 -136.669456 -83.848621 155.852946 12.876418 -8.139315 -10.775033 9.761562 -16.325755 2.095207 45.528017 -8.110198 9.589130 4.825382 46.424150 21.459624 -8.135573 4.773051 -5.728025 
-0.187444 2.005910 0.981948 3.086133 -1.206817 84.380693 3.086889 -4.023862 -7.346834 -10.497448 -15.203326 24.568205 4.742987 15.367611 -14.018219 0.000000 -0.000000 0.000000 -3.557749 -3.838431 -3.613356 0.324580 -1.800748 22.141003 2.188028 -14.952887 -14.728423 0.000000 -0.000000 0.000000 -4.755095 2.758900 1.160518 1.904192 -2.566321 9.562401 0.243853 1.055465 0.671484 -14.286986 39.028029 -1.739208 -12.686063 33.551799 -19.827020 -2.212868 15.250157 3.962941 -29.284908 6.903506 11.162740 -147.640326 -83.684483 167.043881 13.562759 -8.245516 -9.765639 9.580032 -16.186211 2.484092 46.111728 -8.398750 9.255319 4.519658 46.544391 20.904483 -8.474183 4.847910 -5.980281 
-0.190241 2.003833 0.981260 3.099755 -1.424761 84.588237 3.016495 -4.322489 -7.893282 -10.714600 -15.218478 25.345587 4.967088 15.678059 -13.872567 0.000000 -0.000000 0.000000 -3.530057 -3.467144 -3.910039 0.386911 -1.654035 22.775820 1.947857 -15.094760 -15.400894 0.000000 -0.000000 0.000000 -4.967873 2.816811 1.365149 1.715996 -2.408508 9.770916 0.126609 1.252181 0.252517 -15.273795 39.122408 -2.955065 -13.175106 33.417431 -20.692183 -2.819146 15.897920 3.416581 -27.847874 6.363394 10.942649 -149.365885 -82.891642 169.047916 13.349317 -8.456883 -8.979453 9.839971 -16.797302 2.374801 46.255379 -8.987816 9.274446 4.003365 47.380809 20.580340 -8.374852 4.694251 -6.227019 
-0.192357 2.001842 0.980779 3.194739 -1.464064 84.817040 3.061468 -4.303510 -8.432700 -10.750588 -14.978246 25.929341 5.025482 15.691058 -13.563375 0.000000 -0.000000 0.000000 -3.397440 -3.460097 -4.060860 0.527061 -1.297843 22.956102 1.646340 -15.125102 -15.757530 0.000000 -0.000000 0.000000 -5.006404 3.081563 1.195956 1.565768 -2.206373 10.286999 0.075434 1.346230 -0.307586 -15.013762 39.587980 -2.460648 -13.810425 33.281713 -21.755765 -2.761588 15.274285 3.546716 -27.383409 6.413622 10.769826 -151.192847 -83.153292 172.168789 13.977427 -8.509971 -8.956131 9.422995 -16.663723 2.599320 47.396212 -9.858303 8.949394 2.587601 47.767335 20.054762 -8.793672 4.671172 -7.501002 
-0.194191 1.998283 0.980752 3.633564 -1.511860 84.858398 3.020823 -4.375222 -8.269238 -10.808762 -15.259511 25.892617 5.155483 16.014199 -13.684407 0.000000 -0.000000 0.000000 -3.317191 -3.549685 -4.039695 0.633929 -1.319066 23.475910 1.525795 -15.493548 -16.195997 0.000000 -0.000000 0.000000 -5.251993 3.202064 1.031941 1.548095 -2.172269 10.317846 0.148526 1.338675 0.104247 -15.906641 39.198442 -3.393102 -13.938219 33.510444 -22.035624 -3.300386 14.960950 3.319347 -26.314462 6.333577 10.444149 -149.659633 -83.584699 170.535235 15.501739 -8.105209 -8.521621 9.723505 -16.859925 2.053786 47.045443 -10.800492 8.576614 3.332119 49.011460 20.554377 -10.073252 4.629919 -7.751342 
-0.195363 1.996187 0.980092 4.569343 -1.596686 84.994110 2.762239 -4.861786 -8.694965 -10.820627 -15.571930 26.365094 5.328195 16.257321 -13.494169 0.000000 -0.000000 0.000000 -3.301662 -3.746130 -4.099643 0.562892 -1.773621 23.830520 1.503623 -15.810063 -16.540157 0.000000 -0.000000 0.000000 -5.465970 3.168967 0.995327 1.474575 -2.354910 10.374328 0.267437 1.230767 0.380470 -16.733710 38.997571 -3.919718 -14.328086 33.834987 -22.754132 -3.306132 14.426617 3.072272 -26.038369 6.163628 10.505749 -147.789149 -84.634165 168.835106 17.245435 -7.995738 -8.781679 9.573882 -17.058698 1.605545 47.050574 -11.757328 8.380658 3.606087 50.736430 20.760941 -10.959587 4.836123 -8.509290 
-0.196123 1.994720 0.979065 5.151441 -1.566334 84.943831 2.701495 -5.108523 -8.700101 -10.786776 -15.885669 26.450752 5.437622 16.375895 -13.526690 0.000000 -0.000000 0.000000 -3.156637 -3.634209 -3.959182 0.459233 -2.275464 23.964590 1.392441 -16.172873 -16.777032 0.000000 -0.000000 0.000000 -5.563851 3.122578 1.173516 1.493307 -2.420558 10.370119 0.259870 1.233640 0.517634 -16.438070 39.208420 -3.432385 -14.413824 33.515102 -23.047760 -3.068072 14.150643 3.213579 -25.937578 5.825196 10.374522 -148.956523 -85.420614 170.026644 17.107739 -8.208050 -9.534730 9.480743 -17.011034 1.550541 48.034111 -12.237901 7.767430 1.363702 52.693121 18.370745 -11.518558 4.547293 -9.953473 
-0.196634 1.993874 0.978264 5.685203 -1.532105 85.140148 2.697739 -5.402978 -8.974286 -10.706508 -16.100603 26.501127 5.453751 16.290593 -13.716255 0.000000 -0.000000 0.000000 -3.011247 -3.752106 -4.071259 0.378674 -2.317994 24.037265 1.372787 -16.366197 -17.128826 0.000000 -0.000000 0.000000 -5.710865 3.192985 1.240707 1.583713 -2.560479 10.136543 0.347694 1.197720 0.701838 -16.437026 39.052739 -3.302866 -14.106459 33.401350 -22.721260 -3.048718 14.104675 2.613376 -25.621013 5.294264 10.878237 -143.527513 -85.807636 164.543501 18.601120 -8.224255 -10.307558 9.686255 -17.080663 0.962835 47.799574 -12.576299 7.752390 0.578882 54.878911 16.477773 -12.995604 4.908226 -12.350714 
-0.196577 1.993169 0.977681 5.754717 -1.525286 85.418333 2.590315 -5.556276 -9.358439 -10.556772 -16.088651 26.771532 5.584148 16.347694 -13.856229 0.000000 -0.000000 0.000000 -3.003815 -3.625745 -4.373407 0.350385 -2.634895 24.129423 1.445864 -16.340975 -17.201114 0.000000 -0.000000 0.000000 -5.731286 3.231128 1.208998 1.637610 -2.500582 10.009217 0.346044 1.220331 0.737182 -16.008905 38.466007 -2.786536 -13.911555 33.174957 -22.187646 -3.075308 14.228574 2.225275 -25.539356 4.967994 11.369484 -143.537051 -85.921810 164.691848 18.571077 -7.902729 -10.162699 9.799538 -17.078422 0.475509 47.451510 -12.211990 7.881751 -0.134979 57.041211 14.932492 -13.030856 4.758613 -13.587535 
-0.196513 1.993078 0.977414 5.862385 -1.633195 85.514471 2.349453 -5.934278 -9.260908 -10.302539 -16.085489 26.410867 5.854451 16.462455 -14.051563 0.000000 -0.000000 0.000000 -3.171796 -3.623668 -4.499043 0.405480 -2.856459 24.225092 1.413079 -16.290897 -17.430197 0.000000 -0.000000 0.000000 -5.829314 3.361297 1.208633 1.598869 -2.513221 10.553518 0.233028 1.190296 0.465100 -15.907353 38.062070 -3.327692 -13.228590 33.168259 -21.036201 -3.183095 14.126604 2.427814 -25.435302 4.729630 11.578403 -152.315227 -85.920090 173.469899 18.267598 -7.210243 -9.662263 9.830156 -16.685360 0.353247 47.393236 -11.694674 8.477166 -1.680392 58.766271 12.593278 -13.242961 3.692783 -15.837155 
-0.196245 1.993344 0.977524 5.974668 -1.538881 85.777511 2.409741 -6.014463 -9.515597 -10.216314 -16.348806 26.279575 5.627955 16.512841 -14.313960 0.000000 -0.000000 0.000000 -3.142267 -3.724211 -4.774074 0.494838 -2.950034 24.230613 1.533024 -16.228404 -17.496948 0.000000 -0.000000 0.000000 -5.612938 3.428550 1.509469 1.552796 -2.433901 9.942420 0.240631 1.329244 0.860026 -16.242739 37.960382 -2.990545 -13.131284 33.290350 -21.223531 -3.658658 13.696715 2.210025 -25.056351 4.680142 11.170796 -149.064668 -85.832848 170.666871 17.852632 -7.795512 -9.747853 10.494237 -16.480316 0.075810 46.485770 -11.108388 6.734234 -3.739039 61.941606 10.813136 -13.147248 5.007832 -13.822639 
-0.196530 1.993992 0.977463 6.070886 -1.610417 86.085206 2.398216 -6.117491 -9.829645 -10.146389 -16.315725 26.095766 5.709745 16.441990 -14.234500 0.000000 -0.000000 0.000000 -3.197813 -3.633738 -5.125121 0.475903 -3.148546 24.192769 1.543167 -16.181573 -17.469962 0.000000 -0.000000 0.000000 -5.538972 3.418161 2.013074 1.301377 -2.327901 9.557414 0.096583 1.477825 0.878208 -16.061801 37.958503 -3.324470 -12.976796 33.473274 -20.831185 -3.774311 13.401935 2.340326 -24.854708 4.767780 11.141784 -156.311546 -86.119723 178.812428 17.783587 -8.251668 -9.912656 10.376390 -16.327043 -0.042432 46.669963 -10.901023 6.181982 -7.003431 64.491599 7.688230 -13.352312 4.763915 -14.439018 
